<svg width="25" height="25" fill="none" xmlns="http://www.w3.org/2000/svg"><rect width="25" height="25" rx="12.5" fill="#4B4945"/><path d="M16.409 5.966a19.365 19.365 0 00-7.239 0c-1.053.228-2.382 1.501-2.61 2.502a14.293 14.293 0 000 5.914c.274 1.001 1.603 2.275 2.61 2.502.046 0 .092.046.092.091v2.866c0 .137.183.228.275.091l1.374-1.41s1.1-1.137 1.283-1.32c0 0 .046-.045.092-.045 1.374.046 2.794-.09 4.168-.318 1.054-.227 2.383-1.501 2.612-2.502a14.293 14.293 0 000-5.914c-.275-.956-1.604-2.23-2.657-2.457zm.046 8.553c-.23.455-.504.819-.962 1.046l-.413.137a5.882 5.882 0 01-.458-.137c-1.466-.591-2.84-1.41-3.94-2.593a10.939 10.939 0 01-1.512-2.275c-.183-.409-.366-.773-.503-1.182-.138-.364.091-.728.32-1.001a2.12 2.12 0 01.825-.592c.229-.136.458-.045.641.137.367.455.733.91 1.008 1.41.183.319.137.683-.183.91a.815.815 0 00-.23.182c-.045.046-.137.091-.182.182a.44.44 0 00-.046.41c.366 1.046 1.053 1.865 2.107 2.32.183.09.32.136.55.136.32-.046.458-.41.687-.591.229-.182.504-.182.779-.046.229.137.458.319.733.5.229.183.458.319.687.5.137.092.183.32.091.547zm-1.925-3.412c-.091 0-.045 0 0 0-.183 0-.229-.091-.274-.228 0-.09 0-.227-.046-.318a.865.865 0 00-.32-.5l-.276-.137c-.137-.045-.229-.045-.366-.045-.138-.046-.183-.137-.183-.273 0-.091.137-.182.229-.182.732.045 1.282.455 1.374 1.319v.182c0 .09-.046.182-.138.182zm-.458-2.002a3.449 3.449 0 00-.733-.227c-.091 0-.229-.046-.32-.046-.138 0-.23-.09-.184-.227 0-.137.092-.228.23-.182.458.045.87.136 1.282.318.825.41 1.283 1.092 1.42 2.002v.591c-.045.182-.366.228-.412 0 0-.045-.046-.136-.046-.182 0-.41-.091-.818-.275-1.182a2.458 2.458 0 00-.962-.865zm2.474 2.73c-.137 0-.229-.137-.229-.273 0-.273-.046-.546-.091-.82-.184-1.455-1.375-2.638-2.795-2.865-.23-.046-.458-.046-.641-.091-.138 0-.321 0-.367-.182-.046-.137.092-.273.23-.273h.09c1.88.045.092 0 0 0 1.925.045 3.528 1.32 3.849 3.23.046.318.092.637.092 1 .091.137 0 .274-.138.274z" fill="#fff"/></svg>