<svg width="202" height="25" fill="none" xmlns="http://www.w3.org/2000/svg"><path fill-rule="evenodd" clip-rule="evenodd" d="M32.35 20.38c-.474.834-.123 1.868.798 2.3 1.723.815 4.831 1.268 6.852 1.32-2.551-2.515-4.103-4.832-2.858-8.254l-2.434.481-2.358 4.153zM5.156 17.487c-1.123 0-2.03.823-2.03 1.84 0 1.017.907 1.84 2.03 1.84 1.122 0 2.03-.823 2.03-1.84 0-1.014-.908-1.84-2.03-1.84zm17.102 0c-1.122 0-2.03.823-2.03 1.84 0 1.017.907 1.84 2.03 1.84 1.122 0 2.03-.823 2.03-1.84.004-1.014-.908-1.84-2.03-1.84zM5.156 14.654C2.31 14.654 0 16.748 0 19.327 0 21.91 2.31 24 5.156 24c2.85 0 5.155-2.094 5.155-4.673.005-2.58-2.306-4.673-5.155-4.673zm17.102 0c-2.85 0-5.156 2.094-5.156 4.673 0 2.583 2.31 4.673 5.156 4.673 2.85 0 5.155-2.094 5.155-4.673.005-2.58-2.306-4.673-5.155-4.673z" fill="#2A1C00"/><path fill-rule="evenodd" clip-rule="evenodd" d="M14.406 10.771h.079v-.012l.412.012h.574l.062.016 5.33.14v.178l4.959.131a4.565 4.565 0 00-.175-.393l1.85.405c.083.163.153.33.21.497l6.182 5.158-.342.6-5.616-4.522a4.045 4.045 0 01-.579 2.138l5.06 4.39-.404.712a1.9 1.9 0 00-.189 1.43l-4.077-3.047c-.237-1.47-1.175-2.738-2.494-3.505.701-.934.982-2.09.762-3.207l-5.142-.135v.179l-1.118-.028 2.556.68c1.227.325 2.328.95 2.328 2.11v.09a5.996 5.996 0 00-2.372-.484c-3.06 0-5.541 2.25-5.541 5.023 0 .12.004.242.013.357h-6.05c.009-.119.013-.238.013-.357 0-2.774-2.481-5.023-5.541-5.023-2.192 0-4.09 1.156-4.99 2.833v-4.256c0-.921.658-1.708 1.57-1.994l.693-5.846C2.494 4.473 2.946 4 3.573 4h8.198c.631 0 1.004.485 1.149 1.041l1.486 5.73zm12.617 1.188c-.329 0-.592.239-.592.537 0 .298.268.536.592.536.329 0 .592-.238.592-.536.004-.298-.263-.537-.592-.537zm-.714 2.496c-.33 0-.592.238-.592.537 0 .297.263.536.592.536.328 0 .591-.239.591-.537 0-.298-.263-.536-.591-.536zM11.35 4.727H4.353c-.539 0-.916.402-.977.882l-.877 6.62a8.366 8.366 0 012.898-.512c2.784 0 5.225 1.347 6.567 3.358h2.731l-2.367-9.466c-.114-.473-.439-.882-.978-.882z" fill="#FFB217"/><path d="M42.7 24V9.8h1.8v6.14h1.9l4.68-6.14h2.08l-5.28 6.88L53.52 24h-2.2l-4.88-6.42H44.5V24h-1.8zm17.987.1c-1 0-1.907-.2-2.72-.6a6.8 6.8 0 01-2.12-1.62 7.81 7.81 0 01-1.36-2.32 7.623 7.623 0 01-.48-2.66c0-.947.166-1.847.5-2.7a7.654 7.654 0 011.42-2.3 6.775 6.775 0 012.14-1.6c.813-.4 1.7-.6 2.66-.6 1 0 1.906.207 2.72.62a6.699 6.699 0 012.1 1.66 7.812 7.812 0 011.36 2.32 7.513 7.513 0 01-.02 5.34 7.46 7.46 0 01-1.42 2.3 6.687 6.687 0 01-2.12 1.58c-.814.387-1.7.58-2.66.58zm-4.86-7.2c0 .72.113 1.42.34 2.1.24.667.573 1.26 1 1.78.426.52.94.933 1.54 1.24.6.307 1.266.46 2 .46.76 0 1.44-.16 2.04-.48.6-.32 1.106-.747 1.52-1.28a5.576 5.576 0 00.96-1.8 6.24 6.24 0 00.34-2.02c0-.72-.12-1.413-.36-2.08a5.437 5.437 0 00-1-1.78 4.463 4.463 0 00-1.54-1.24 4.166 4.166 0 00-1.96-.46c-.76 0-1.44.16-2.04.48-.6.307-1.114.727-1.54 1.26a6.137 6.137 0 00-.96 1.8 6.12 6.12 0 00-.34 2.02zm25.48-7.1V24h-1.8v-6.46h-7.82V24h-1.8V9.8h1.8v6.14h7.82V9.8h1.8zm13.645 1.6h-4.9V24h-1.8V11.4h-4.9V9.8h11.6v1.6zm5.037-1.6h1.52l5.8 14.2h-1.92l-1.68-4.16h-5.96L96.089 24h-1.92l5.82-14.2zm3.32 8.64l-2.56-6.56-2.64 6.56h5.2zm5.895 5.56V9.8h1.8v6.14h1.9l4.68-6.14h2.08l-5.28 6.88 5.64 7.32h-2.2l-4.88-6.42h-1.94V24h-1.8zm23.267-12.6h-4.9V24h-1.8V11.4h-4.9V9.8h11.6v1.6z" fill="#2A1C00"/><path d="M133.596 16.8c0-.867.147-1.713.44-2.54.307-.84.747-1.6 1.32-2.28a6.338 6.338 0 012.14-1.64c.84-.413 1.794-.62 2.86-.62 1.267 0 2.354.293 3.26.88.907.573 1.58 1.313 2.02 2.22l-1.42.92c-.28-.6-.64-1.073-1.08-1.42a3.783 3.783 0 00-1.4-.76 5.102 5.102 0 00-1.46-.22c-.786 0-1.486.16-2.1.48-.6.32-1.106.747-1.52 1.28a5.816 5.816 0 00-.94 1.8 6.73 6.73 0 00-.3 1.98c0 .733.12 1.44.36 2.12.254.68.6 1.28 1.04 1.8.44.52.96.933 1.56 1.24.6.307 1.254.46 1.96.46.494 0 1-.087 1.52-.26a4.751 4.751 0 001.46-.8 3.929 3.929 0 001.08-1.44l1.5.82a4.481 4.481 0 01-1.36 1.8c-.613.493-1.3.867-2.06 1.12a6.872 6.872 0 01-2.22.38 5.833 5.833 0 01-2.68-.62 7.211 7.211 0 01-2.12-1.68 8.408 8.408 0 01-1.38-2.36 7.734 7.734 0 01-.48-2.66zm24.793-5.4h-4.9V24h-1.8V11.4h-4.9V9.8h11.6v1.6zm2.045 12.6V9.8h5.92c.627 0 1.2.133 1.72.4.52.253.974.6 1.36 1.04.387.427.687.913.9 1.46.214.533.32 1.08.32 1.64 0 .773-.173 1.513-.52 2.22a4.497 4.497 0 01-1.46 1.7c-.626.427-1.36.64-2.2.64h-4.24V24h-1.8zm1.8-6.7h4.14c.494 0 .92-.133 1.28-.4.374-.267.66-.627.86-1.08.214-.453.32-.947.32-1.48 0-.56-.12-1.06-.36-1.5a2.8 2.8 0 00-.94-1.06 2.285 2.285 0 00-1.28-.38h-4.02v5.9zm16.421 6.8c-1 0-1.906-.2-2.72-.6a6.81 6.81 0 01-2.12-1.62 7.825 7.825 0 01-1.36-2.32 7.623 7.623 0 01-.48-2.66c0-.947.167-1.847.5-2.7a7.662 7.662 0 011.42-2.3 6.788 6.788 0 012.14-1.6c.814-.4 1.7-.6 2.66-.6 1 0 1.907.207 2.72.62a6.683 6.683 0 012.1 1.66 7.803 7.803 0 011.36 2.32c.32.853.48 1.727.48 2.62 0 .947-.166 1.853-.5 2.72a7.439 7.439 0 01-1.42 2.3 6.679 6.679 0 01-2.12 1.58 6.11 6.11 0 01-2.66.58zm-4.86-7.2c0 .72.114 1.42.34 2.1a5.98 5.98 0 001 1.78 4.8 4.8 0 001.54 1.24c.6.307 1.267.46 2 .46.76 0 1.44-.16 2.04-.48.6-.32 1.107-.747 1.52-1.28a5.56 5.56 0 00.96-1.8 6.23 6.23 0 00.34-2.02c0-.72-.12-1.413-.36-2.08a5.425 5.425 0 00-1-1.78 4.457 4.457 0 00-1.54-1.24 4.164 4.164 0 00-1.96-.46c-.76 0-1.44.16-2.04.48-.6.307-1.113.727-1.54 1.26a6.156 6.156 0 00-.96 1.8 6.137 6.137 0 00-.34 2.02zm14.161 7.1V9.8h1.8v11.7l8.22-11.7h1.68V24h-1.8V12.52L189.736 24h-1.78zm5.86-15.26c-.693 0-1.28-.107-1.76-.32-.48-.213-.84-.507-1.08-.88a2.246 2.246 0 01-.36-1.24h1.38c0 .347.127.667.38.96.267.28.747.42 1.44.42.667 0 1.134-.127 1.4-.38.267-.267.4-.6.4-1h1.38c0 .453-.12.867-.36 1.24s-.593.667-1.06.88c-.466.213-1.053.32-1.76.32z" fill="#FFB217"/></svg>