<svg width="15" height="18" fill="none" xmlns="http://www.w3.org/2000/svg"><path d="M11.066 16.534h0-.012a5.705 5.705 0 01-2.132-.55c-.166-.11-.34-.218-.524-.33-.416-.256-.878-.54-1.394-.95l-.014-.01-.014-.01C3.653 12.396 2.03 8.287 1.808 7.72a10.59 10.59 0 00-.016-.039l-.018-.046-.027-.041-.006-.01a5.557 5.557 0 01-.203-.426 7.971 7.971 0 01-.334-.963c-.214-.77-.345-1.7-.162-2.56.188-.882.539-1.456.88-1.848.255-.293.482-.47.689-.63.089-.07.174-.137.257-.208.213-.186.411-.16.742-.09h.002l.001.001h.004l.001.001h.003l.001.001h.004l.002.001h.003l.002.001h.002l.002.001h.004l.001.001h.003l.001.001h.004l.001.001h.003l.001.001h.004l.002.001h.003v.001h.005l.001.001h.003l.001.001h.005l.001.001h.003l.001.001h.003l.001.001h.005l.001.001h.003l.001.001h.003l.001.001h.005l.001.001h.003l.001.001h.003l.002.001h.004l.001.001h.003l.002.001h.003l.001.001h.003l.001.001h.005l.001.001h.003l.002.001h.003L3.75.89h.003l.002.001h.002l.002.001h.004l.002.001h.003l.001.001h.003l.002.001h.003l.001.001h.003l.002.001h.003l.001.001h.003L3.792.9h.009l.001.001h.003l.002.001h.003l.002.001h.003l.001.001h.003l.002.001h.003l.001.001h.003l.002.001h.003l.001.001h.004l.001.001h.003l.002.001h.003l.001.001h.003l.002.001h.003l.002.001h.003l.001.001h.003l.002.001h.003l.002.001h.003l.001.001h.003l.002.001h.003l.002.001h.003L3.89.92h.004l.001.001h.003L3.9.923h.003l.002.001h.003l.001.001h.003l.002.001h.003l.002.001h.003l.001.001h.004l.001.001h.003l.002.001h.003l.002.001h.003l.001.001h.004l.001.001h.003l.002.001h.003l.002.001h.003l.001.001h.004l.001.001h.003l.002.001h.003l.002.001h.003L3.98.94h.004l.001.001h.003l.002.001h.003l.002.001h.003l.001.001h.004l.001.001h.003l.002.001h.003l.002.001h.003l.001.001h.004l.001.001h.003l.002.001h.003l.002.001h.003l.001.001h.004l.001.001h.003l.002.001h.003l.002.001h.003l.001.001h.004l.001.001h.003l.002.001h.003l.002.001h.003l.001.001h.008l.002.001h.003l.001.001h.004l.001.001h.003L4.1.965h.003l.001.001h.004l.001.001h.003l.002.001h.003l.001.001h.004l.001.001h.003l.002.001h.003l.001.001h.004l.001.001h.003l.002.001h.003l.001.001h.003l.002.001h.003l.002.001h.003l.001.001h.003l.002.001h.003l.001.001h.003l.002.001h.004l.002.001h.003l.001.001h.003l.002.001h.003l.001.001h.003l.002.001H4.2v.001h.003l.002.001h.003l.001.001h.005l.001.001h.003l.002.001h.003l.001.001h.003l.002.001h.003l.001.001h.004l.002.001h.003l.001.001h.003l.002.001h.002l.002.001h.004l.002.001h.002L4.263 1h.008l.002.001h.003l.001.001h.002l.002.001h.005l.001.001h.003l.001.001h.002l.002.001H4.3l.002.001h.003l.001.001h.004l.001.001h.003l.002.001h.002l.002.001h.004l.001.001h.003l.001.001h.004l.001.001h.003l.001.001h.004l.002.001h.004v.001h.003l.002.001h.004l.001.001h.003l.002.001h.003v.001h.002c.037.008.076.014.1.018l.01.002a.825.825 0 01.08.017h.001l.011.012a.31.31 0 01.035.054c.03.06.07.163.105.337.055.276.13.696.21 1.142l.115.639c.06.322.116.628.164.862.024.117.047.221.068.303a1.998 1.998 0 00.051.172c.012.068-.003.116-.051.177-.154.192-.264.326-.452.447-.16.104-.318.234-.438.335l-.065.055a10.594 10.594 0 01-.17.138l-.005.004s0 0 0 0l-.022.014c-.114.074-.317.204-.453.392a.886.886 0 00-.168.425.984.984 0 00.06.452c.151.554.68 1.934 1.663 3.295l.005.006.004.006a12.18 12.18 0 002.604 2.54c.085.062.155.114.208.156.241.192.503.322.796.325.289.004.516-.118.675-.22.15-.098.466-.327.78-.577.303-.243.657-.546.85-.788a.408.408 0 01.033-.036c.012.004.028.01.05.02.051.025.107.057.186.103.045.026.184.126.402.29.206.157.458.353.71.553.518.412.994.807 1.106.922l.022.022.024.02a14.508 14.508 0 01.48.393 2.245 2.245 0 01-.091.445 3.963 3.963 0 01-.462.989c-.165.258-.59.543-1.152.762-.55.213-1.092.31-1.38.29z" fill="#FF9820" stroke="#FF9820"/></svg>